<svg preserveAspectRatio="none" overflow="visible" style="display: block;" width="110.062" height="48" viewBox="0 0 110.062 48" fill="none" xmlns="http://www.w3.org/2000/svg">
<g id="Link &#226;&#134;&#146; DEXTA-WEB-LOGO.png [Vectorized]">
<path id="Subtract" d="M3.99914 14.2373C7.59181 14.2772 11.1964 14.2244 14.7902 14.2432C15.9502 14.2492 16.7858 14.2194 17.9347 14.4355C21.5147 15.1094 23.7016 18.2963 23.8156 21.8154C23.9287 24.6336 23.5858 26.7108 21.6593 28.9004C18.9147 31.6028 15.6986 31.1159 12.171 31.1152L4.01282 31.1211C3.93105 29.3458 3.99595 27.1173 3.99621 25.291L3.99914 14.2373ZM9.8468 19.2031C9.84261 21.4896 9.81235 23.8754 9.85071 26.1553C10.8448 26.1435 11.839 26.141 12.8331 26.1465C14.2204 26.1507 15.7685 26.3287 16.8888 25.3672C17.7002 24.4112 17.6661 23.7245 17.6915 22.5361C17.7331 20.5876 16.8356 19.2622 14.7882 19.2129C13.1441 19.1733 11.4902 19.1878 9.8468 19.2031Z" fill="white"/>
<path id="Subtract_2" d="M95.355 16.632C98.1468 16.4646 102.151 16.5152 104.268 18.59C106.281 20.563 105.991 23.6961 105.991 26.2873L105.979 31.1262C104.207 31.092 102.376 31.1143 100.603 31.1232L100.599 29.2678C100.264 29.4791 99.917 29.6707 99.5591 29.84C96.6221 31.2452 92.1184 31.8517 88.98 30.8019C87.8054 30.409 86.9804 29.6783 86.4526 28.5578C86.1888 27.8398 86.0869 26.7202 86.2476 25.9855C87.4232 20.607 97.1933 22.1132 100.656 22.7199C100.647 22.6776 100.638 22.635 100.628 22.593C100.186 20.6719 98.4462 20.4233 96.7368 20.3801C93.8106 20.3061 90.8831 20.8329 88.0444 21.5012C87.7763 20.3128 87.5245 18.9561 87.2935 17.7551C89.9869 17.1934 92.6035 16.7752 95.355 16.632ZM100.601 25.8127C98.6658 25.5682 96.0972 25.2763 94.1528 25.3937C93.4201 25.4489 91.6678 25.5307 91.7876 26.5129C91.9975 28.2265 97.2028 27.3505 98.1304 27.2336C98.9342 27.1219 99.7802 26.9914 100.583 26.9064C100.592 26.5454 100.605 26.1727 100.601 25.8127Z" fill="white"/>
<path id="Subtract_3" d="M33.6922 17.0369C36.6019 16.8695 40.2239 17.2105 42.4978 19.2019C44.556 21.0044 44.882 22.8694 45.0701 25.408L35.6033 25.4031C33.9944 25.4023 32.0078 25.3516 30.4324 25.4363C30.6746 26.0459 30.9144 26.6207 31.4598 27.0398C32.8448 28.1039 35.3661 28.02 37.0389 27.8494C38.1811 27.7329 38.981 27.3399 39.6697 26.4304L42.9568 26.4392C43.6216 26.4431 44.2962 26.4328 44.9617 26.4275C43.8315 30.3427 40.7703 31.5998 36.9803 31.9041C32.1543 32.2858 25.5539 31.2859 25.0359 25.2927C24.5544 19.7197 28.8087 17.4122 33.6922 17.0369ZM37.0799 20.3572C36.396 20.1655 34.8998 20.078 34.2019 20.1785C32.5211 20.3465 31.4346 20.7221 30.6355 22.2996H35.9803C37.0785 22.2999 38.3938 22.3319 39.4744 22.2859C38.8545 21.2251 38.3152 20.7037 37.0799 20.3572Z" fill="white"/>
<path id="Vector" d="M78.2315 13.1824C78.3841 13.1553 78.4099 13.1502 78.5685 13.1746C78.598 13.2224 78.584 16.7011 78.591 17.0715C80.4688 17.0293 82.4309 17.055 84.3145 17.0523C84.3011 18.3888 84.2973 19.7253 84.3027 21.0618C82.3965 21.0461 80.4902 21.0422 78.5846 21.05C78.5658 22.4467 78.5228 24.1509 78.6329 25.5188C78.8296 27.9615 82.8087 26.9136 84.3161 26.6321C84.3016 28.0837 84.2994 29.5355 84.3113 30.9871C83.6932 31.1209 83.1607 31.228 82.5367 31.3228C79.9824 31.6593 76.3532 31.9501 74.3326 30.0173C72.9132 28.6597 73.1357 26.3563 73.1384 24.5484L73.1406 21.0606C72.192 21.0454 71.2435 21.0472 70.295 21.0662C70.2804 19.7279 70.2804 18.3895 70.2939 17.0513L73.1395 17.0591L73.1357 14.4717C74.5228 14.1131 76.9132 13.4203 78.2315 13.1824Z" fill="white"/>
<path id="Vector_2" d="M40.1283 14.4238C42.2149 14.5325 45.2129 14.3117 47.3074 14.5649C47.7627 14.62 49.4345 16.41 49.8994 16.876L53.3743 20.3381L57.6951 24.6517C60.76 27.7072 61.9703 28.215 58.1106 31.6553C57.9843 31.7677 57.8548 31.8888 57.7215 31.9987C57.5156 32.01 57.2883 32.011 57.0809 32.0165C54.8205 31.9993 52.5598 32.0041 50.2996 32.0309C51.241 31.0125 53.1896 29.3109 53.9074 28.3415C52.4125 26.4474 40.3443 15.095 40.1283 14.4238Z" fill="white"/>
<path id="Vector_3" d="M60.4783 17.0439C62.7322 17.0169 65.437 17.1326 67.6463 17C66.7881 17.9978 65.4306 19.0768 64.668 20.0867C65.1022 20.6992 66.0389 21.5363 66.6091 22.1055C67.8871 23.4041 69.1785 24.6895 70.4828 25.9614L74.7832 30.2551C75.6017 31.0736 76.4427 31.9751 77.3112 32.728L77.3692 32.8231L77.3123 32.8777C75.2642 32.9656 73.1478 32.8754 71.0938 32.9128C70.7241 32.9195 70.0717 32.8699 69.7836 32.6288C68.9307 31.9139 68.1676 31.0733 67.3803 30.283L63.326 26.2391L60.1359 23.0741C58.9843 21.9192 57.0786 20.5154 58.5914 18.7025C58.973 18.2453 59.9161 17.1109 60.4783 17.0439Z" fill="white"/>
</g>
</svg>
